<svg height="16" viewBox="0 0 16 16" width="16" xmlns="http://www.w3.org/2000/svg"><path d="m8 1.75c3.4517797 0 6.25 2.79822031 6.25 6.25 0 1.80742408-1.2364936 3.25-2.75 3.25-.7281305 0-1.271692-.2898434-1.64197818-.8038333-.46377622.4963711-1.09698752.8038333-1.85802182.8038333-1.69027009 0-2.75-1.51668519-2.75-3.25s1.05972991-3.25 2.75-3.25c.51089834 0 .96419044.13856458 1.34802449.37979351.12831294-.22667052.37226233-.37979351.65197551-.37979351.3796958 0 .693491.28215388.7431534.64822944l.0068466.10177056v2.5c0 1.2431283.2811264 1.75.75 1.75.6293508 0 1.25-.72409074 1.25-1.75 0-2.62335256-2.1266474-4.75-4.75-4.75-2.62335256 0-4.75 2.12664744-4.75 4.75 0 2.6233526 2.12664744 4.75 4.75 4.75.39547699 0 .78387496-.0481767 1.15931645-.1422976l.27905994-.0791705.19471945-.0665019c.38896416-.142407.81972556.0574671.96213266.4464313.1305397.3565504-.0265317.7482222-.3532182.9207145l-.0932131.0414181-.2567669.0876926c-.60703442.192609-1.24330282.2917135-1.8920303.2917135-3.45177969 0-6.25-2.7982203-6.25-6.25 0-3.45177969 2.79822031-6.25 6.25-6.25zm0 4.5c-.72318279 0-1.25.75398066-1.25 1.75s.52681721 1.75 1.25 1.75 1.25-.75398066 1.25-1.75-.52681721-1.75-1.25-1.75z" fill="#212121"/></svg>