<svg class="svg-icon" style="width: 1em; height: 1em;vertical-align: middle;fill: currentColor;overflow: hidden;" viewBox="0 0 1024 1024" version="1.1" xmlns="http://www.w3.org/2000/svg"><path d="M703.956003 63.996a31.998 31.998 0 1 1 0-63.996h186.932316C964.419724 0 1023.936004 59.51628 1023.936004 133.047685V319.980001a31.998 31.998 0 1 1-63.996 0V133.047685C959.940004 94.906068 929.029936 63.996 890.888319 63.996H703.956003z m255.984001 624.792951a31.998 31.998 0 1 1 63.996 0v202.099368C1023.936004 964.419724 964.419724 1023.936004 890.888319 1023.936004h-126.328104a31.998 31.998 0 1 1 0-63.996h126.328104c38.141616 0 69.051684-30.910068 69.051685-69.051685v-202.099368zM335.147053 959.940004a31.998 31.998 0 1 1 0 63.996H133.047685A133.047685 133.047685 0 0 1 0 890.888319V703.956003a31.998 31.998 0 1 1 63.996 0v186.932316C63.996 929.029936 94.906068 959.940004 133.047685 959.940004h202.099368zM63.996 319.980001a31.998 31.998 0 0 1-63.996 0V133.047685C0 59.51628 59.51628 0 133.047685 0H319.980001a31.998 31.998 0 0 1 0 63.996H133.047685C94.906068 63.996 63.996 94.906068 63.996 133.047685V319.980001zM511.968002 671.958003c109.625148 0 211.634773-56.892444 308.332729-175.989001C723.602775 376.872445 621.59315 319.980001 511.968002 319.980001c-109.625148 0-211.634773 56.892444-308.332729 175.989001C300.333229 615.065558 402.342854 671.958003 511.968002 671.958003z m0 63.996c-130.615837 0-249.968377-66.55584-357.993625-199.667521a63.996 63.996 0 0 1 0-80.63496C261.999625 322.539841 381.352165 255.984001 511.968002 255.984001c130.615837 0 249.968377 66.55584 357.993625 199.667521a63.996 63.996 0 0 1 0 80.63496C761.936379 669.398163 642.583839 735.954003 511.968002 735.954003z" fill="#333333" /><path d="M511.968002 575.964002a79.995 79.995 0 1 0 0-159.99A79.995 79.995 0 0 0 511.968002 575.964002z m0 63.996a143.991001 143.991001 0 1 1 0-287.982001A143.991001 143.991001 0 0 1 511.968002 639.960002z" fill="#333333" /></svg>