<svg xmlns="http://www.w3.org/2000/svg" xmlns:xlink="http://www.w3.org/1999/xlink" width="500" zoomAndPan="magnify" viewBox="0 0 375 374.999991" height="500" preserveAspectRatio="xMidYMid meet" version="1.0"><defs><g/><clipPath id="9e2adbd22e"><path d="M 140.972656 99.664062 L 233.957031 99.664062 L 233.957031 206.914062 L 140.972656 206.914062 Z M 140.972656 99.664062 " clip-rule="nonzero"/></clipPath></defs><rect x="-37.5" width="450" fill="#ffffff" y="-37.499999" height="449.999989" fill-opacity="1"/><g clip-path="url(#9e2adbd22e)"><path fill="#01a2e9" d="M 153.058594 161.460938 C 154.113281 161.460938 155.082031 161.804688 155.855469 162.40625 C 156.523438 162.902344 157.039062 163.566406 157.363281 164.339844 L 196.148438 164.339844 C 196.515625 163.203125 197.203125 162.191406 198.109375 161.460938 C 199.140625 160.625 200.453125 160.109375 201.914062 160.109375 C 203.570312 160.109375 205.054688 160.796875 206.175781 161.871094 C 207.25 162.964844 207.9375 164.449219 207.9375 166.125 C 207.9375 167.777344 207.25 169.304688 206.175781 170.378906 C 205.078125 171.472656 203.59375 172.136719 201.914062 172.136719 C 200.472656 172.136719 199.160156 171.644531 198.109375 170.808594 C 197.203125 170.054688 196.515625 169.066406 196.148438 167.929688 L 157.382812 167.929688 C 157.0625 168.703125 156.546875 169.367188 155.878906 169.863281 C 155.105469 170.441406 154.136719 170.785156 153.082031 170.785156 C 151.789062 170.785156 150.628906 170.269531 149.769531 169.433594 C 148.929688 168.59375 148.414062 167.433594 148.414062 166.125 C 148.414062 164.855469 148.929688 163.695312 149.769531 162.816406 C 150.609375 161.976562 151.769531 161.460938 153.058594 161.460938 Z M 195.527344 194.929688 C 197.804688 190.054688 201.292969 187.863281 205.054688 186.9375 C 208.84375 186.035156 212.824219 186.464844 216.113281 186.832031 L 216.996094 186.917969 L 217.726562 187.003906 C 218.179688 187.023438 218.585938 187.046875 218.953125 187.003906 C 219.320312 186.980469 219.664062 186.917969 219.941406 186.832031 C 220.308594 186.722656 220.589844 186.574219 220.847656 186.378906 C 221.105469 186.1875 221.320312 185.929688 221.492188 185.648438 C 221.664062 185.371094 221.816406 185.070312 221.921875 184.726562 C 222.03125 184.339844 222.117188 183.929688 222.160156 183.523438 C 222.203125 182.964844 222.203125 182.40625 222.136719 181.867188 C 222.074219 181.265625 221.964844 180.707031 221.816406 180.238281 C 220.460938 175.898438 222.351562 174.972656 222.910156 174.800781 C 223.019531 174.757812 223.128906 174.738281 223.128906 174.738281 C 223.234375 174.738281 223.300781 174.714844 223.40625 174.714844 C 223.707031 174.714844 223.964844 174.695312 224.160156 174.652344 C 224.332031 174.609375 224.4375 174.566406 224.523438 174.5 C 224.351562 174.351562 224.203125 174.179688 224.03125 173.984375 C 223.816406 173.707031 223.601562 173.40625 223.429688 173.082031 C 223.320312 172.867188 223.234375 172.652344 223.191406 172.4375 C 223.128906 172.222656 223.085938 172.007812 223.085938 171.773438 C 223.0625 171.472656 223.105469 171.191406 223.191406 170.914062 C 223.277344 170.636719 223.386719 170.378906 223.578125 170.121094 C 223.730469 169.925781 223.902344 169.734375 224.117188 169.5625 C 224.308594 169.390625 224.546875 169.238281 224.804688 169.109375 C 224.914062 169.066406 225 169.003906 225.085938 168.9375 C 225.171875 168.875 225.257812 168.808594 225.320312 168.722656 C 225.40625 168.636719 225.472656 168.550781 225.515625 168.464844 C 225.558594 168.378906 225.601562 168.292969 225.621094 168.230469 C 225.621094 168.164062 225.621094 168.101562 225.621094 168.058594 C 225.621094 168.015625 225.601562 167.992188 225.601562 167.949219 C 225.578125 167.929688 225.558594 167.886719 225.535156 167.863281 C 225.515625 167.84375 225.492188 167.800781 225.449219 167.777344 C 225.320312 167.648438 225.214844 167.519531 225.105469 167.390625 L 225.0625 167.347656 L 225.019531 167.347656 L 224.828125 166.960938 C 224.613281 166.554688 224.503906 166.125 224.503906 165.671875 C 224.503906 165.222656 224.589844 164.769531 224.785156 164.320312 C 224.914062 163.996094 225.085938 163.675781 225.300781 163.351562 C 225.515625 163.03125 225.773438 162.707031 226.074219 162.386719 C 226.589844 161.828125 227.257812 161.269531 227.988281 160.734375 C 228.65625 160.238281 229.410156 159.789062 230.183594 159.359375 C 230.140625 159.273438 230.074219 159.144531 230.011719 158.992188 C 229.429688 157.898438 228.160156 156.4375 226.914062 154.976562 C 226.890625 154.976562 226.890625 154.953125 226.871094 154.953125 C 225.449219 153.320312 224.03125 151.6875 223.300781 150.273438 C 222.503906 148.746094 222.117188 146.878906 221.902344 144.558594 C 221.6875 142.300781 221.644531 139.554688 221.601562 136.160156 C 221.601562 135.019531 221.578125 133.816406 221.554688 132.507812 C 221.535156 131.21875 221.492188 129.84375 221.449219 128.339844 C 221.449219 128.105469 221.425781 127.847656 221.40625 127.546875 C 221.382812 127.289062 221.363281 127.007812 221.339844 126.75 C 220.933594 123.226562 219.578125 120.285156 217.535156 117.835938 C 215.230469 115.066406 212.070312 112.875 208.476562 111.265625 C 206.175781 110.210938 203.699219 109.394531 201.164062 108.773438 C 198.625 108.128906 195.976562 107.675781 193.394531 107.417969 C 193.050781 108.558594 192.363281 109.546875 191.480469 110.277344 C 190.449219 111.136719 189.117188 111.652344 187.632812 111.652344 C 186.210938 111.652344 184.898438 111.15625 183.84375 110.320312 C 182.941406 109.566406 182.253906 108.578125 181.886719 107.441406 L 157.535156 107.441406 C 157.210938 108.128906 156.738281 108.707031 156.15625 109.136719 C 155.425781 109.675781 154.542969 109.976562 153.597656 109.976562 C 152.394531 109.976562 151.316406 109.503906 150.523438 108.707031 C 149.746094 107.933594 149.273438 106.859375 149.273438 105.65625 C 149.273438 104.476562 149.746094 103.402344 150.523438 102.605469 C 151.316406 101.835938 152.394531 101.339844 153.597656 101.339844 C 154.542969 101.339844 155.425781 101.664062 156.15625 102.199219 C 156.738281 102.628906 157.210938 103.207031 157.535156 103.894531 L 181.21875 103.894531 L 181.910156 103.808594 C 182.273438 102.691406 182.984375 101.707031 183.886719 100.976562 C 184.921875 100.160156 186.210938 99.664062 187.632812 99.664062 C 189.050781 99.664062 190.363281 100.160156 191.417969 100.996094 C 192.320312 101.726562 193.03125 102.714844 193.375 103.875 C 196.234375 104.132812 199.140625 104.605469 201.957031 105.3125 C 204.710938 106 207.421875 106.882812 209.917969 108.019531 C 214.070312 109.890625 217.707031 112.421875 220.375 115.6875 C 222.78125 118.609375 224.394531 122.152344 224.890625 126.386719 C 224.914062 126.6875 224.933594 126.988281 224.957031 127.308594 C 224.976562 127.589844 225 127.910156 225.019531 128.253906 C 225.0625 129.714844 225.085938 131.113281 225.105469 132.441406 C 225.128906 133.730469 225.148438 134.957031 225.171875 136.136719 C 225.257812 142.496094 225.300781 146.363281 226.484375 148.683594 C 227.019531 149.734375 228.269531 151.175781 229.539062 152.632812 L 229.539062 152.65625 C 230.246094 153.449219 230.957031 154.265625 231.582031 155.039062 C 232.207031 155.835938 232.765625 156.628906 233.152344 157.359375 C 233.667969 158.347656 233.925781 159.292969 233.796875 160.132812 C 233.667969 161.054688 233.109375 161.828125 232.035156 162.386719 C 231.324219 162.75 230.679688 163.160156 230.097656 163.566406 C 229.539062 163.976562 229.042969 164.40625 228.65625 164.8125 C 228.503906 164.984375 228.355469 165.136719 228.269531 165.285156 C 228.203125 165.351562 228.183594 165.414062 228.140625 165.457031 C 228.226562 165.542969 228.289062 165.652344 228.375 165.738281 C 228.527344 165.953125 228.65625 166.144531 228.761719 166.359375 C 228.957031 166.789062 229.085938 167.199219 229.152344 167.628906 C 229.195312 168.078125 229.171875 168.507812 229.085938 168.960938 C 229 169.347656 228.847656 169.734375 228.65625 170.121094 C 228.460938 170.484375 228.203125 170.828125 227.925781 171.148438 C 227.710938 171.363281 227.472656 171.578125 227.214844 171.773438 C 227.128906 171.835938 227.042969 171.878906 226.957031 171.945312 C 227.042969 172.03125 227.128906 172.09375 227.171875 172.136719 C 227.429688 172.308594 227.625 172.546875 227.796875 172.847656 C 227.945312 173.105469 228.054688 173.425781 228.117188 173.75 C 228.160156 174.027344 228.183594 174.328125 228.140625 174.652344 C 228.117188 174.929688 228.074219 175.210938 227.96875 175.53125 C 227.859375 175.855469 227.6875 176.199219 227.449219 176.519531 C 227.234375 176.800781 226.976562 177.078125 226.65625 177.316406 C 226.289062 177.59375 225.835938 177.832031 225.300781 178.003906 C 225.148438 178.046875 225 178.089844 224.828125 178.132812 C 224.933594 178.390625 225.0625 178.734375 225.191406 179.164062 C 225.40625 179.828125 225.578125 180.621094 225.664062 181.480469 C 225.730469 182.234375 225.75 183.027344 225.664062 183.824219 C 225.621094 184.511719 225.492188 185.175781 225.277344 185.820312 C 225.085938 186.421875 224.828125 187.003906 224.480469 187.539062 C 224.09375 188.140625 223.601562 188.699219 222.996094 189.171875 C 222.4375 189.601562 221.773438 189.945312 220.996094 190.183594 C 220.480469 190.351562 219.921875 190.460938 219.296875 190.503906 C 218.71875 190.566406 218.09375 190.546875 217.382812 190.480469 C 216.757812 190.4375 216.285156 190.375 215.835938 190.332031 L 215.75 190.308594 C 212.953125 190.011719 209.550781 189.644531 206.453125 190.332031 C 203.570312 190.976562 200.863281 192.566406 199.03125 196.046875 C 199.699219 196.539062 200.28125 197.164062 200.6875 197.894531 C 201.207031 198.773438 201.507812 199.804688 201.507812 200.898438 C 201.507812 202.554688 200.839844 204.035156 199.742188 205.152344 C 198.667969 206.25 197.160156 206.914062 195.484375 206.914062 C 193.804688 206.914062 192.300781 206.25 191.222656 205.152344 C 190.148438 204.078125 189.460938 202.574219 189.460938 200.898438 C 189.460938 199.246094 190.125 197.722656 191.222656 196.648438 C 192.320312 195.550781 193.804688 194.886719 195.484375 194.886719 L 195.527344 194.886719 Z M 165.730469 174.671875 C 166.765625 174.671875 167.710938 175.082031 168.398438 175.769531 C 169.066406 176.457031 169.496094 177.402344 169.496094 178.433594 C 169.496094 179.464844 169.066406 180.410156 168.398438 181.09375 C 167.710938 181.78125 166.765625 182.191406 165.730469 182.191406 C 164.675781 182.191406 163.75 181.78125 163.0625 181.09375 C 162.375 180.410156 161.945312 179.464844 161.945312 178.433594 C 161.945312 177.402344 162.375 176.457031 163.0625 175.769531 C 163.75 175.082031 164.675781 174.671875 165.730469 174.671875 Z M 177.585938 172.652344 C 178.960938 172.652344 180.230469 173.125 181.242188 173.941406 C 182.101562 174.628906 182.769531 175.574219 183.113281 176.671875 L 205.917969 176.671875 C 206.28125 175.511719 206.972656 174.523438 207.875 173.792969 C 208.90625 172.953125 210.21875 172.4375 211.683594 172.4375 C 213.339844 172.4375 214.824219 173.105469 215.941406 174.199219 C 217.015625 175.296875 217.707031 176.777344 217.707031 178.453125 C 217.707031 180.109375 217.015625 181.632812 215.941406 182.707031 C 214.84375 183.800781 213.359375 184.46875 211.683594 184.46875 C 210.242188 184.46875 208.929688 183.972656 207.875 183.113281 C 206.972656 182.382812 206.28125 181.394531 205.917969 180.257812 L 183.113281 180.257812 C 182.769531 181.332031 182.101562 182.277344 181.242188 182.984375 C 180.253906 183.78125 178.984375 184.253906 177.585938 184.253906 C 175.972656 184.253906 174.53125 183.609375 173.453125 182.578125 C 172.421875 181.523438 171.753906 180.085938 171.753906 178.453125 C 171.753906 176.863281 172.421875 175.402344 173.453125 174.351562 C 174.507812 173.296875 175.992188 172.652344 177.585938 172.652344 Z M 198.28125 133.582031 C 199.464844 133.582031 200.515625 134.054688 201.292969 134.828125 C 202.042969 135.601562 202.519531 136.652344 202.519531 137.8125 C 202.519531 138.972656 202.042969 140.027344 201.292969 140.800781 C 200.515625 141.574219 199.464844 142.042969 198.28125 142.042969 C 197.117188 142.042969 196.0625 141.574219 195.289062 140.800781 C 194.535156 140.046875 194.0625 138.972656 194.0625 137.8125 C 194.0625 136.652344 194.535156 135.578125 195.289062 134.828125 C 196.0625 134.054688 197.117188 133.582031 198.28125 133.582031 Z M 164.871094 120.800781 C 165.839844 120.800781 166.71875 121.1875 167.367188 121.832031 C 168.011719 122.476562 168.398438 123.355469 168.398438 124.324219 C 168.398438 125.3125 168.011719 126.191406 167.367188 126.816406 L 167.367188 126.835938 C 166.71875 127.460938 165.839844 127.867188 164.871094 127.867188 C 163.882812 127.867188 163 127.460938 162.375 126.835938 L 162.355469 126.816406 C 161.730469 126.191406 161.320312 125.3125 161.320312 124.324219 C 161.320312 123.355469 161.730469 122.476562 162.355469 121.832031 L 162.375 121.832031 C 162.976562 121.1875 163.882812 120.800781 164.871094 120.800781 Z M 164.289062 147.566406 C 165.453125 147.566406 166.503906 148.039062 167.28125 148.789062 C 168.054688 149.5625 168.527344 150.617188 168.527344 151.796875 C 168.527344 152.957031 168.054688 154.007812 167.28125 154.78125 C 166.503906 155.535156 165.453125 156.007812 164.289062 156.007812 C 163.128906 156.007812 162.050781 155.535156 161.300781 154.78125 C 160.523438 154.007812 160.050781 152.957031 160.050781 151.796875 C 160.050781 150.617188 160.523438 149.5625 161.300781 148.789062 C 162.03125 148.039062 163.085938 147.566406 164.289062 147.566406 Z M 176.875 110.253906 C 178.144531 110.253906 179.285156 110.769531 180.144531 111.585938 C 180.984375 112.421875 181.5 113.582031 181.5 114.871094 C 181.5 116.160156 180.984375 117.277344 180.144531 118.136719 C 179.304688 118.976562 178.164062 119.492188 176.875 119.492188 C 175.820312 119.492188 174.875 119.148438 174.097656 118.566406 C 173.453125 118.074219 172.9375 117.429688 172.613281 116.65625 L 142.777344 116.65625 C 142.28125 116.65625 141.832031 116.460938 141.507812 116.140625 C 141.183594 115.816406 140.992188 115.367188 140.992188 114.851562 C 140.992188 114.335938 141.183594 113.90625 141.507812 113.582031 C 141.832031 113.261719 142.28125 113.066406 142.777344 113.066406 L 172.59375 113.066406 C 172.917969 112.316406 173.433594 111.652344 174.078125 111.179688 C 174.851562 110.597656 175.820312 110.253906 176.875 110.253906 Z M 184.597656 131.820312 C 186.253906 131.820312 187.78125 132.484375 188.855469 133.582031 C 189.953125 134.65625 190.621094 136.160156 190.621094 137.835938 C 190.621094 139.511719 189.953125 141.015625 188.855469 142.085938 C 187.78125 143.183594 186.277344 143.847656 184.597656 143.847656 C 183.15625 143.847656 181.84375 143.332031 180.789062 142.496094 C 179.886719 141.765625 179.199219 140.777344 178.855469 139.640625 L 143.960938 139.640625 C 143.464844 139.640625 143.035156 139.425781 142.710938 139.101562 L 142.691406 139.101562 C 142.390625 138.78125 142.175781 138.351562 142.175781 137.855469 C 142.175781 137.363281 142.390625 136.933594 142.691406 136.609375 C 143.011719 136.289062 143.464844 136.074219 143.960938 136.074219 L 178.855469 136.074219 C 179.199219 134.933594 179.886719 133.945312 180.789062 133.214844 C 181.824219 132.335938 183.15625 131.820312 184.597656 131.820312 Z M 174.445312 119.683594 C 175.476562 119.683594 176.464844 120.027344 177.242188 120.628906 C 177.886719 121.125 178.402344 121.789062 178.726562 122.5625 L 202.753906 122.5625 C 203.121094 121.425781 203.808594 120.414062 204.710938 119.683594 C 205.746094 118.847656 207.058594 118.332031 208.519531 118.332031 C 210.175781 118.332031 211.660156 119.019531 212.78125 120.09375 C 213.855469 121.1875 214.523438 122.667969 214.523438 124.34375 C 214.523438 126.019531 213.855469 127.523438 212.78125 128.597656 C 211.683594 129.695312 210.199219 130.359375 208.519531 130.359375 C 207.078125 130.359375 205.765625 129.867188 204.710938 129.027344 C 203.808594 128.277344 203.121094 127.289062 202.753906 126.148438 L 178.746094 126.148438 C 178.421875 126.921875 177.90625 127.589844 177.261719 128.082031 C 176.488281 128.664062 175.496094 129.007812 174.464844 129.007812 C 173.175781 129.007812 172.011719 128.492188 171.152344 127.652344 C 170.3125 126.816406 169.777344 125.65625 169.777344 124.34375 C 169.777344 123.078125 170.3125 121.917969 171.152344 121.039062 C 171.992188 120.199219 173.152344 119.683594 174.445312 119.683594 Z M 178.769531 145.78125 C 180.1875 145.78125 181.519531 146.277344 182.574219 147.113281 C 183.480469 147.84375 184.167969 148.855469 184.511719 149.992188 L 207.121094 149.992188 C 207.464844 148.855469 208.152344 147.84375 209.058594 147.113281 C 210.089844 146.277344 211.402344 145.78125 212.867188 145.78125 C 214.523438 145.78125 216.050781 146.449219 217.125 147.523438 C 218.199219 148.617188 218.890625 150.121094 218.890625 151.796875 C 218.890625 153.429688 218.222656 154.933594 217.125 156.050781 C 216.050781 157.125 214.542969 157.789062 212.867188 157.789062 C 211.425781 157.789062 210.113281 157.296875 209.058594 156.457031 C 208.152344 155.726562 207.464844 154.71875 207.121094 153.578125 L 184.511719 153.578125 C 184.167969 154.71875 183.480469 155.726562 182.574219 156.457031 C 181.542969 157.296875 180.210938 157.789062 178.769531 157.789062 C 177.109375 157.789062 175.582031 157.125 174.507812 156.050781 C 173.410156 154.953125 172.746094 153.449219 172.746094 151.796875 C 172.746094 150.144531 173.410156 148.617188 174.507812 147.523438 C 175.582031 146.449219 177.109375 145.78125 178.769531 145.78125 Z M 178.769531 145.78125 " fill-opacity="1" fill-rule="nonzero"/></g><g fill="#000000" fill-opacity="1"><g transform="translate(118.204992, 238.971268)"><g><path d="M 4.109375 -13.984375 L 4.109375 0 L 1.078125 0 L 1.078125 -13.984375 Z M 4.109375 -13.984375 "/></g></g></g><g fill="#000000" fill-opacity="1"><g transform="translate(127.774881, 238.971268)"><g><path d="M 9.09375 0 L 6.078125 0 L 6.078125 -11.609375 C 6.078125 -11.722656 6.035156 -11.820312 5.953125 -11.90625 C 5.867188 -11.988281 5.769531 -12.03125 5.65625 -12.03125 L 4.5 -12.03125 C 4.382812 -12.03125 4.285156 -11.988281 4.203125 -11.90625 C 4.117188 -11.820312 4.078125 -11.722656 4.078125 -11.609375 L 4.078125 0 L 1.0625 0 L 1.0625 -11.34375 C 1.0625 -13.25 1.953125 -14.203125 3.734375 -14.203125 L 6.421875 -14.203125 C 8.203125 -14.203125 9.09375 -13.25 9.09375 -11.34375 Z M 9.09375 0 "/></g></g></g><g fill="#000000" fill-opacity="1"><g transform="translate(142.11786, 238.971268)"><g><path d="M 0.28125 -11.40625 L 0.28125 -13.984375 L 7.84375 -13.984375 L 7.84375 -11.40625 L 5.578125 -11.40625 L 5.578125 0 L 2.546875 0 L 2.546875 -11.40625 Z M 0.28125 -11.40625 "/></g></g></g><g fill="#000000" fill-opacity="1"><g transform="translate(154.56024, 238.971268)"><g><path d="M 4.109375 -2.5 L 7.453125 -2.5 L 7.453125 0 L 1.078125 0 L 1.078125 -13.984375 L 7.453125 -13.984375 L 7.453125 -11.515625 L 4.109375 -11.515625 L 4.109375 -8.234375 L 7.234375 -8.234375 L 7.234375 -5.859375 L 4.109375 -5.859375 Z M 4.109375 -2.5 "/></g></g></g><g fill="#000000" fill-opacity="1"><g transform="translate(166.981024, 238.971268)"><g><path d="M 4.109375 -5.71875 L 4.109375 0 L 1.078125 0 L 1.078125 -13.984375 L 6.46875 -13.984375 C 8.25 -13.984375 9.140625 -13.03125 9.140625 -11.125 L 9.140625 -9.515625 C 9.140625 -8.359375 8.726562 -7.617188 7.90625 -7.296875 C 8.625 -7.046875 8.984375 -6.457031 8.984375 -5.53125 L 8.984375 0 L 5.96875 0 L 5.96875 -5.296875 C 5.96875 -5.578125 5.828125 -5.71875 5.546875 -5.71875 Z M 4.109375 -11.921875 L 4.109375 -7.84375 L 5.703125 -7.84375 C 5.816406 -7.84375 5.910156 -7.882812 5.984375 -7.96875 C 6.066406 -8.0625 6.109375 -8.164062 6.109375 -8.28125 L 6.109375 -11.5 C 6.109375 -11.613281 6.066406 -11.710938 5.984375 -11.796875 C 5.910156 -11.878906 5.816406 -11.921875 5.703125 -11.921875 Z M 4.109375 -11.921875 "/></g></g></g><g fill="#000000" fill-opacity="1"><g transform="translate(181.280816, 238.971268)"><g><path d="M 6.640625 -14.203125 C 8.421875 -14.203125 9.3125 -13.25 9.3125 -11.34375 L 9.3125 0 L 6.28125 0 L 6.28125 -4.6875 L 4.109375 -4.6875 L 4.109375 0 L 1.078125 0 L 1.078125 -11.34375 C 1.078125 -13.25 1.972656 -14.203125 3.765625 -14.203125 Z M 4.109375 -7.015625 L 6.28125 -7.015625 L 6.28125 -11.71875 C 6.28125 -11.832031 6.238281 -11.929688 6.15625 -12.015625 C 6.082031 -12.097656 5.988281 -12.140625 5.875 -12.140625 L 4.515625 -12.140625 C 4.398438 -12.140625 4.300781 -12.097656 4.21875 -12.015625 C 4.144531 -11.929688 4.109375 -11.832031 4.109375 -11.71875 Z M 4.109375 -7.015625 "/></g></g></g><g fill="#000000" fill-opacity="1"><g transform="translate(196.055756, 238.971268)"><g><path d="M 6.28125 -2.296875 L 6.28125 -4.453125 L 9.15625 -4.453125 L 9.15625 -2.640625 C 9.15625 -0.734375 8.265625 0.21875 6.484375 0.21875 L 3.765625 0.21875 C 1.972656 0.21875 1.078125 -0.734375 1.078125 -2.640625 L 1.078125 -11.34375 C 1.078125 -13.25 1.972656 -14.203125 3.765625 -14.203125 L 6.484375 -14.203125 C 8.265625 -14.203125 9.15625 -13.25 9.15625 -11.34375 L 9.15625 -10.03125 L 6.28125 -10.03125 L 6.28125 -11.71875 C 6.28125 -11.832031 6.238281 -11.929688 6.15625 -12.015625 C 6.082031 -12.097656 5.988281 -12.140625 5.875 -12.140625 L 4.515625 -12.140625 C 4.398438 -12.140625 4.300781 -12.097656 4.21875 -12.015625 C 4.144531 -11.929688 4.109375 -11.832031 4.109375 -11.71875 L 4.109375 -2.296875 C 4.109375 -2.179688 4.144531 -2.078125 4.21875 -1.984375 C 4.300781 -1.898438 4.398438 -1.859375 4.515625 -1.859375 L 5.875 -1.859375 C 5.988281 -1.859375 6.082031 -1.898438 6.15625 -1.984375 C 6.238281 -2.078125 6.28125 -2.179688 6.28125 -2.296875 Z M 6.28125 -2.296875 "/></g></g></g><g fill="#000000" fill-opacity="1"><g transform="translate(210.24755, 238.971268)"><g><path d="M 0.28125 -11.40625 L 0.28125 -13.984375 L 7.84375 -13.984375 L 7.84375 -11.40625 L 5.578125 -11.40625 L 5.578125 0 L 2.546875 0 L 2.546875 -11.40625 Z M 0.28125 -11.40625 "/></g></g></g><g fill="#000000" fill-opacity="1"><g transform="translate(222.689932, 238.971268)"><g><path d="M 8.578125 -7.484375 L 8.578125 -5.171875 L 1.203125 -5.171875 L 1.203125 -7.484375 Z M 8.578125 -7.484375 "/></g></g></g><g fill="#000000" fill-opacity="1"><g transform="translate(236.73055, 238.971268)"><g><path d="M 6.640625 -14.203125 C 8.421875 -14.203125 9.3125 -13.25 9.3125 -11.34375 L 9.3125 0 L 6.28125 0 L 6.28125 -4.6875 L 4.109375 -4.6875 L 4.109375 0 L 1.078125 0 L 1.078125 -11.34375 C 1.078125 -13.25 1.972656 -14.203125 3.765625 -14.203125 Z M 4.109375 -7.015625 L 6.28125 -7.015625 L 6.28125 -11.71875 C 6.28125 -11.832031 6.238281 -11.929688 6.15625 -12.015625 C 6.082031 -12.097656 5.988281 -12.140625 5.875 -12.140625 L 4.515625 -12.140625 C 4.398438 -12.140625 4.300781 -12.097656 4.21875 -12.015625 C 4.144531 -11.929688 4.109375 -11.832031 4.109375 -11.71875 Z M 4.109375 -7.015625 "/></g></g></g><g fill="#000000" fill-opacity="1"><g transform="translate(251.50549, 238.971268)"><g><path d="M 4.109375 -13.984375 L 4.109375 0 L 1.078125 0 L 1.078125 -13.984375 Z M 4.109375 -13.984375 "/></g></g></g></svg>